<svg id="Capa_1" enable-background="new 0 0 513.18 513.18" height="512" viewBox="0 0 513.18 513.18" width="512" xmlns="http://www.w3.org/2000/svg"><g><g><path d="m271.644 114.871c19.309-15.634 56.655-35.148 108.504-13.595 78.276 32.538 131.463 152.563 74.261 280.212-57.201 127.648-135.477 128.951-158.559 121.777-12.086-3.757-22.265-7.747-29.22-10.697-6.192-2.793-13.263-2.86-19.512-.197-6.963 2.968-17.326 7.053-29.683 10.894-23.081 7.175-101.357 5.872-158.559-121.777-57.199-127.649-4.012-247.674 74.264-280.212 51.85-21.553 89.195-2.038 108.504 13.596l15 13.634z" fill="#f47c7c"/><g><path d="m157.166 381.488c-55.727-124.359-6.678-241.468 68.266-277.509-21.112-11.561-52.41-19.281-92.291-2.703-78.277 32.538-131.464 152.563-74.263 280.212 57.202 127.648 135.477 128.951 158.559 121.777 12.357-3.841 22.72-7.927 29.683-10.894.203-.086.409-.162.613-.243-29.243-15.689-62.45-47.895-90.567-110.64z" fill="#ee6161"/></g><path d="m311.524 64.212h-42.089v-26.855c0-16.486 13.365-29.851 29.851-29.851h36.601c3.031 0 5.488 2.457 5.488 5.488v21.368c0 16.486-13.365 29.85-29.851 29.85z" fill="#22b27f"/><g><path d="m271.644 159.967v-86.159c0-15.389-3.64-30.799-10.525-44.564l-9.198-18.383c-1.5-2.998-5.145-4.212-8.143-2.712l-15.975 7.993c-2.998 1.5-4.212 5.146-2.712 8.143l9.197 18.382c4.812 9.619 7.355 20.388 7.355 31.142v86.159h30.001z" fill="#fdd79b"/></g></g><g><path d="m483.9 242.587c-5.451-41.671-22.281-80.358-47.391-108.935-2.733-3.111-7.474-3.419-10.584-.684-3.112 2.733-3.418 7.473-.684 10.584 23.166 26.366 38.716 62.228 43.785 100.979 5.696 43.548-1.725 89.845-21.461 133.888-23.943 53.43-53.782 89.719-88.689 107.859-33.609 17.466-58.117 10.657-60.799 9.823-12.021-3.736-22.092-7.717-28.446-10.409-8.051-3.605-17.323-3.688-25.452-.223-6.431 2.741-16.676 6.811-28.968 10.632-9.896 3.075-29.15 3.551-50.854-5.237-28.954-11.723-55.011-36.009-77.446-72.184-2.185-3.521-6.808-4.602-10.327-2.421-3.52 2.184-4.604 6.807-2.421 10.327 24.148 38.935 52.6 65.238 84.565 78.182 25.339 10.259 48.092 9.648 60.935 5.657 12.895-4.009 23.646-8.28 30.396-11.157 4.312-1.837 9.226-1.788 13.486.134.052.023.104.047.157.069 6.664 2.825 17.264 7.02 29.922 10.954 5.447 1.693 12.32 2.754 20.226 2.753 14.622 0 32.773-3.628 51.942-13.591 37.983-19.738 70.101-58.442 95.46-115.034 20.874-46.574 28.705-95.666 22.648-141.966z"/><path d="m65.722 378.42c-27.88-62.217-30.981-127.357-8.733-183.421 16.293-41.057 45.099-72.693 79.03-86.798 44.614-18.547 77.597-5.214 98.125 10.331v34.048c-6.349-1.437-12.69-3.468-19.041-6.106-3.823-1.593-8.214.223-9.803 4.049-1.59 3.825.224 8.214 4.049 9.803 15.663 6.507 31.583 9.759 47.656 9.759 16.038 0 32.229-3.24 48.451-9.72 3.847-1.536 5.719-5.9 4.183-9.747-1.535-3.847-5.901-5.717-9.747-4.183-6.989 2.792-13.897 4.906-20.748 6.359v-34.262c20.528-15.544 53.513-28.874 98.125-10.33 8.847 3.678 17.486 8.624 25.678 14.702 1.343.996 2.909 1.477 4.463 1.477 2.293 0 4.558-1.048 6.029-3.031 2.468-3.326 1.772-8.023-1.555-10.492-9.173-6.806-18.882-12.359-28.857-16.507-46.316-19.252-81.996-7.408-103.883 6.047v-26.59c0-.699-.017-1.397-.031-2.096h34.62c20.596 0 37.352-16.756 37.352-37.352v-21.366c0-7.161-5.826-12.987-12.988-12.987h-36.601c-15.781 0-29.297 9.842-34.759 23.705l-8.108-16.206c-1.622-3.242-4.408-5.658-7.848-6.803-3.438-1.146-7.118-.883-10.358.739l-15.975 7.992c-3.242 1.622-5.658 4.408-6.803 7.848-1.146 3.438-.883 7.117.739 10.358l9.196 18.382c4.294 8.584 6.563 18.192 6.563 27.786v26.589c-21.886-13.456-57.564-25.301-103.883-6.047-37.647 15.65-69.436 50.318-87.213 95.116-23.755 59.86-20.563 129.144 8.987 195.088 2 4.462 4.066 8.851 6.32 13.417 1.307 2.648 3.966 4.184 6.731 4.184 1.114 0 2.246-.25 3.313-.776 3.715-1.833 5.24-6.33 3.407-10.044-2.17-4.399-4.16-8.624-6.083-12.915zm213.422-341.063c0-12.324 10.027-22.351 22.352-22.351h34.589v19.354c0 12.324-10.027 22.352-22.352 22.352h-34.589zm-46.705-15.149 13.415-6.712 8.557 17.103c6.368 12.729 9.733 26.979 9.733 41.209v81.104c-5.02.349-10.017.337-15-.048v-81.056c0-11.912-2.817-23.841-8.148-34.497z"/></g></g></svg>